<svg width="196" height="296" viewBox="0 0 196 296" fill="none" xmlns="http://www.w3.org/2000/svg">
<g id="Group 73">
<g id="Rectangle 18" filter="url(#filter0_d_13_5)">
<rect x="60" y="66" width="76" height="176" rx="25" fill="#FFE6E6"/>
</g>
<path id="Rectangle 20" d="M60 152H136V217C136 230.807 124.807 242 111 242H85C71.1929 242 60 230.807 60 217V152Z" fill="#EE777F"/>
<path id="Vector" d="M99.8045 204.964V196.273C99.8045 195.79 99.6118 195.328 99.2688 194.987C98.9258 194.646 98.4607 194.455 97.9756 194.455C97.4906 194.455 97.0254 194.646 96.6824 194.987C96.3394 195.328 96.1467 195.79 96.1467 196.273V204.964C95.5939 205.281 95.1342 205.736 94.8134 206.285C94.4925 206.834 94.3217 207.456 94.3178 208.091C94.3178 209.055 94.7032 209.98 95.3892 210.662C96.0751 211.344 97.0055 211.727 97.9756 211.727C98.9457 211.727 99.8761 211.344 100.562 210.662C101.248 209.98 101.633 209.055 101.633 208.091C101.63 207.456 101.459 206.834 101.138 206.285C100.817 205.736 100.357 205.281 99.8045 204.964ZM106.206 200.818V187.182C106.206 185.012 105.339 182.931 103.795 181.396C102.252 179.862 100.158 179 97.9756 179C95.7929 179 93.6995 179.862 92.1561 181.396C90.6127 182.931 89.7456 185.012 89.7456 187.182V200.818C88.4816 202.242 87.6134 203.97 87.2269 205.829C86.8404 207.689 86.9491 209.617 87.5421 211.423C88.1351 213.228 89.192 214.848 90.6081 216.123C92.0242 217.398 93.7505 218.283 95.6163 218.691C96.3914 218.866 97.1812 218.97 97.9756 219C100.098 219.01 102.178 218.407 103.963 217.266C105.749 216.124 107.162 214.492 108.033 212.568C108.905 210.643 109.195 208.509 108.871 206.424C108.547 204.338 107.621 202.391 106.206 200.818ZM102.548 213.673C101.093 214.955 99.1846 215.611 97.2433 215.495C95.302 215.379 93.4866 214.501 92.1963 213.054C90.9061 211.608 90.2468 209.711 90.3634 207.781C90.48 205.851 91.363 204.046 92.8181 202.764C92.991 202.595 93.1284 202.394 93.2226 202.173C93.3168 201.951 93.3658 201.713 93.3668 201.473V187.182C93.3668 185.976 93.8485 184.82 94.706 183.968C95.5634 183.115 96.7264 182.636 97.939 182.636C99.1517 182.636 100.315 183.115 101.172 183.968C102.03 184.82 102.511 185.976 102.511 187.182V201.618C102.512 201.859 102.561 202.097 102.655 202.318C102.75 202.54 102.887 202.741 103.06 202.909C103.807 203.627 104.393 204.495 104.776 205.455C105.16 206.416 105.333 207.446 105.285 208.479C105.236 209.511 104.967 210.521 104.495 211.442C104.023 212.362 103.359 213.172 102.548 213.818V213.673Z" fill="#FFF5F5" fill-opacity="0.79"/>
</g>
<defs>
<filter id="filter0_d_13_5" x="0" y="0" width="196" height="296" filterUnits="userSpaceOnUse" color-interpolation-filters="sRGB">
<feFlood flood-opacity="0" result="BackgroundImageFix"/>
<feColorMatrix in="SourceAlpha" type="matrix" values="0 0 0 0 0 0 0 0 0 0 0 0 0 0 0 0 0 0 127 0" result="hardAlpha"/>
<feOffset dy="-6"/>
<feGaussianBlur stdDeviation="30"/>
<feColorMatrix type="matrix" values="0 0 0 0 0.113725 0 0 0 0 0.137255 0 0 0 0 0.262745 0 0 0 0.14 0"/>
<feBlend mode="normal" in2="BackgroundImageFix" result="effect1_dropShadow_13_5"/>
<feBlend mode="normal" in="SourceGraphic" in2="effect1_dropShadow_13_5" result="shape"/>
</filter>
</defs>
</svg>
